<?xml version="1.0" standalone="no"?>
<!DOCTYPE svg PUBLIC "-//W3C//DTD SVG 20010904//EN"
 "http://www.w3.org/TR/2001/REC-SVG-20010904/DTD/svg10.dtd">
<svg version="1.0" xmlns="http://www.w3.org/2000/svg"
 width="591.000000pt" height="591.000000pt" viewBox="0 0 591.000000 591.000000"
 preserveAspectRatio="xMidYMid meet">

<g transform="translate(0.000000,591.000000) scale(0.100000,-0.100000)"
fill="#000000" stroke="none">
<path d="M4356 4716 c-102 -51 -159 -136 -160 -240 0 -114 -1 -114 327 -443
l301 -303 -1710 0 c-1559 0 -1715 -1 -1760 -16 -69 -24 -128 -74 -160 -139
-24 -49 -26 -64 -22 -130 4 -60 11 -84 34 -122 36 -59 107 -108 177 -122 80
-17 4129 -10 4178 7 54 18 128 89 155 147 32 67 32 143 0 210 -19 40 -135 161
-559 584 -295 294 -547 540 -559 547 -96 52 -164 58 -242 20z"/>
<path d="M359 2704 c-104 -32 -189 -146 -189 -254 0 -108 0 -108 583 -689 295
-294 547 -540 559 -547 61 -33 95 -44 139 -44 94 0 208 77 246 169 20 45 22
143 4 196 -11 31 -78 105 -314 343 l-301 302 1710 0 c1559 0 1715 1 1760 16
69 24 128 74 160 139 24 49 26 64 22 130 -4 60 -11 84 -34 122 -36 58 -106
108 -174 122 -36 8 -656 11 -2088 10 -1731 -1 -2044 -3 -2083 -15z"/>
</g>
</svg>
